#!OML:ASF I:\Actors\actors\Patient Classification 2\Patient 1\Session 1\actor1.ASF
:FULLY-SPECIFIED
:DEGREES
171
root -0.631858 18.6495 6.11584 -0.223569 2.43961 -3.58855
lowerback 1.20894 3.34811 1.58685
upperback -2.78145 4.55909 1.22891
thorax -3.51455 2.24806 0.185779
lowerneck -2.80178 -8.77319 -13.1567
upperneck 29.6226 -12.6684 6.58628
head 11.3749 -6.55865 3.21835
rclavicle -3.11843e-015 -4.87022e-015
rhumerus 32.2194 9.02106 -43.7
rradius 106.54
rwrist -1.91432
rhand -38.99 -10.8563
rfingers 7.12502
rthumb -11.994 -40.4926
lclavicle -3.11843e-015 -4.87022e-015
lhumerus 37.0382 18.5152 34.304
lradius 139.464
lwrist 9.97477
lhand -11.6997 -51.0457
lfingers 7.12502
lthumb 14.3464 -21.5614
rfemur 0 0 0
rtibia 0
rfoot 0 0
rtoes 0
lfemur -3.42042 -9.28913 -11.1703
ltibia 23.2976
lfoot -23.549 12.0428
ltoes -55.5931
172
root -0.632739 18.6499 6.11727 -0.199745 2.46045 -3.58683
lowerback 1.19827 3.38058 1.5648
upperback -2.76804 4.60089 1.21906
thorax -3.49531 2.26958 0.187394
lowerneck -2.75439 -8.8132 -13.1533
upperneck 29.4735 -12.7126 6.55741
head 11.3103 -6.58187 3.20258
rclavicle 4.72486e-014 1.59028e-015
rhumerus 31.8423 9.06294 -43.8975
rradius 106.922
rwrist -1.79532
rhand -39.3293 -11.2366
rfingers 7.12502
rthumb -12.3211 -40.8536
lclavicle 4.72486e-014 1.59028e-015
lhumerus 36.9657 18.5371 34.2089
lradius 139.451
lwrist 9.62532
lhand -11.9222 -51.113
lfingers 7.12502
lthumb 14.132 -21.6136
rfemur 0 0 0
rtibia 0
rfoot 0 0
rtoes 0
lfemur -3.45698 -9.30383 -11.1651
ltibia 23.3169
lfoot -23.5606 12.03
ltoes -55.5887
173
root -0.635067 18.6496 6.11904 -0.181573 2.49654 -3.57899
lowerback 1.17025 3.40387 1.506
upperback -2.7436 4.6291 1.22224
thorax -3.45892 2.28572 0.224724
lowerneck -2.7433 -8.82045 -13.2295
upperneck 29.3555 -12.7232 6.6207
head 11.274 -6.58792 3.23665
rclavicle 1.33621e-014 -9.93923e-016
rhumerus 31.4036 9.14994 -44.1303
rradius 107.299
rwrist -1.60839
rhand -39.7022 -11.7444
rfingers 7.12502
rthumb -12.6807 -41.3394
lclavicle 1.33621e-014 -9.93923e-016
lhumerus 36.9711 18.6629 34.3159
lradius 139.482
lwrist 9.36142
lhand -12.1664 -51.0361
lfingers 7.12502
lthumb 13.8967 -21.5205
rfemur 0 0 0
rtibia 0
rfoot 0 0
rtoes 0
lfemur -3.49793 -9.27436 -11.1561
ltibia 23.3305
lfoot -23.5315 12.0156
ltoes -55.6563
174
root -0.638877 18.6494 6.12064 -0.168144 2.52821 -3.58582
lowerback 1.15219 3.39727 1.43412
upperback -2.7218 4.61738 1.22536
thorax -3.43205 2.28219 0.270033
lowerneck -2.72586 -8.81807 -13.3653
upperneck 29.1855 -12.7403 6.78537
head 11.2289 -6.59354 3.31673
rclavicle -1.74309e-014 7.95139e-016
rhumerus 30.9204 9.35686 -44.4825
rradius 107.647
rwrist -1.47156
rhand -40.0083 -12.0087
rfingers 7.12502
rthumb -12.9758 -41.5852
lclavicle -1.74309e-014 7.95139e-016
lhumerus 36.9761 18.9057 34.3857
lradius 139.524
lwrist 9.22711
lhand -12.3794 -50.8955
lfingers 7.12502
lthumb 13.6913 -21.3659
rfemur 0 0 0
rtibia 0
rfoot 0 0
rtoes 0
lfemur -3.53291 -9.26248 -11.1299
ltibia 23.3375
lfoot -23.4922 12.0523
ltoes -55.8127
175
root -0.642024 18.6503 6.12193 -0.140049 2.55305 -3.59075
lowerback 1.15021 3.3801 1.36315
upperback -2.7164 4.5925 1.23149
thorax -3.43142 2.27185 0.316766
lowerneck -2.71229 -8.83392 -13.4965
upperneck 28.9447 -12.766 6.90283
head 11.1547 -6.60723 3.37661
rclavicle -1.30018e-014 2.5842e-015
rhumerus 30.4093 9.64527 -44.8726
rradius 108.023
rwrist -1.47475
rhand -40.1482 -11.9659
rfingers 7.12502
rthumb -13.1107 -41.5338
lclavicle -1.30018e-014 2.5842e-015
lhumerus 36.9706 19.1532 34.3772
lradius 139.567
lwrist 9.23436
lhand -12.499 -50.8095
lfingers 7.12502
lthumb 13.5761 -21.2721
rfemur 0 0 0
rtibia 0
rfoot 0 0
rtoes 0
lfemur -3.57153 -9.2898 -11.1095
ltibia 23.3378
lfoot -23.4843 12.0983
ltoes -55.8639
176
root -0.643686 18.6514 6.12425 -0.0914794 2.57358 -3.5899
lowerback 1.1366 3.39265 1.30191
upperback -2.73145 4.60785 1.23865
thorax -3.4447 2.28121 0.357587
lowerneck -2.73731 -8.85966 -13.4308
upperneck 28.7375 -12.7455 6.73551
head 11.06 -6.6062 3.30517
rclavicle 1.89777e-014 -2.78299e-015
rhumerus 29.7897 9.92487 -45.1899
rradius 108.419
rwrist -1.73853
rhand -40.214 -11.6738
rfingers 7.12502
rthumb -13.1741 -41.2376
lclavicle 1.89777e-014 -2.78299e-015
lhumerus 36.9943 19.2659 34.4219
lradius 139.642
lwrist 9.27981
lhand -12.2246 -50.9412
lfingers 7.12502
lthumb 13.8406 -21.4217
rfemur 0 0 0
rtibia 0
rfoot 0 0
rtoes 0
lfemur -3.619 -9.30462 -11.0965
ltibia 23.3334
lfoot -23.5028 12.0889
ltoes -55.8389
177
root -0.645051 18.6524 6.12727 -0.0286864 2.58959 -3.57303
lowerback 1.09141 3.41091 1.20015
upperback -2.74544 4.62926 1.25552
thorax -3.44312 2.29502 0.432558
lowerneck -2.82137 -8.86004 -13.2245
upperneck 28.5693 -12.6715 6.46244
head 10.9667 -6.57502 3.1783
rclavicle -7.22644e-014 -6.4605e-015
rhumerus 29.0733 10.2694 -45.4826
rradius 108.798
rwrist -2.09175
rhand -40.4151 -11.2096
rfingers 7.12502
rthumb -13.3679 -40.7608
lclavicle -7.22644e-014 -6.4605e-015
lhumerus 36.9921 19.3108 34.4648
lradius 139.719
lwrist 9.09194
lhand -11.6738 -51.1233
lfingers 7.12502
lthumb 14.3714 -21.6408
rfemur 0 0 0
rtibia 0
rfoot 0 0
rtoes 0
lfemur -3.67705 -9.30319 -11.1007
ltibia 23.3283
lfoot -23.5108 12.0867
ltoes -55.8725
178
root -0.646202 18.6535 6.13015 0.0154097 2.60868 -3.5472
lowerback 1.0438 3.41743 1.08026
upperback -2.72818 4.63412 1.28161
thorax -3.41006 2.30142 0.528971
lowerneck -2.87632 -8.84973 -13.5945
upperneck 28.4091 -12.7105 6.88093
head 10.9794 -6.58704 3.38107
rclavicle 3.00041e-015 1.07344e-014
rhumerus 28.3705 10.6545 -45.744
rradius 109.178
rwrist -2.1886
rhand -40.4909 -11.0109
rfingers 7.12502
rthumb -13.441 -40.5573
lclavicle 3.00041e-015 1.07344e-014
lhumerus 36.983 19.3819 34.4805
lradius 139.767
lwrist 8.7249
lhand -11.4141 -51.1985
lfingers 7.12502
lthumb 14.6216 -21.734
rfemur 0 0 0
rtibia 0
rfoot 0 0
rtoes 0
lfemur -3.71428 -9.33536 -11.1235
ltibia 23.3253
lfoot -23.4937 12.116
ltoes -55.8446
179
root -0.646591 18.6541 6.13276 0.0344001 2.63108 -3.53463
lowerback 1.03517 3.42361 1.00844
upperback -2.71187 4.64005 1.28532
thorax -3.39432 2.30651 0.573348
lowerneck -2.89728 -8.83003 -13.7103
upperneck 28.1458 -12.6861 7.02323
head 10.8983 -6.57203 3.45269
rclavicle 3.58993e-014 -9.93923e-015
rhumerus 27.6962 11.0506 -45.9413
rradius 109.569
rwrist -2.24427
rhand -40.4315 -11.2621
rfingers 7.12502
rthumb -13.3838 -40.8122
lclavicle 3.58993e-014 -9.93923e-015
lhumerus 37.0194 19.4502 34.4473
lradius 139.81
lwrist 8.496
lhand -11.2939 -51.2815
lfingers 7.12502
lthumb 14.7373 -21.8253
rfemur 0 0 0
rtibia 0
rfoot 0 0
rtoes 0
lfemur -3.72846 -9.38101 -11.1393
ltibia 23.3274
lfoot -23.4736 12.1305
ltoes -55.8084
180
root -0.646984 18.654 6.13493 0.0375042 2.65298 -3.53999
lowerback 1.06554 3.4246 0.987924
upperback -2.71306 4.64115 1.27463
thorax -3.4134 2.3073 0.571651
lowerneck -2.8846 -8.80901 -13.6721
upperneck 27.9133 -12.6495 7.03573
head 10.7999 -6.54973 3.45596
rclavicle 2.29161e-014 1.04362e-014
rhumerus 27.0317 11.5486 -46.0995
rradius 109.904
rwrist -2.37589
rhand -40.5845 -11.3171
rfingers 7.12502
rthumb -13.5312 -40.8575
lclavicle 2.29161e-014 1.04362e-014
lhumerus 37.0811 19.5187 34.3541
lradius 139.869
lwrist 8.4798
lhand -11.3272 -51.222
lfingers 7.12502
lthumb 14.7053 -21.7635
rfemur 0 0 0
rtibia 0
rfoot 0 0
rtoes 0
lfemur -3.73426 -9.39045 -11.1314
ltibia 23.3394
lfoot -23.4584 12.1291
ltoes -55.9189
181
root -0.647455 18.6534 6.13749 0.0148896 2.66453 -3.54813
lowerback 1.08616 3.42619 0.955453
upperback -2.68607 4.64294 1.29743
thorax -3.4016 2.30947 0.612458
lowerneck -3.02115 -8.78197 -13.5083
upperneck 27.7656 -12.5578 6.87284
head 10.7342 -6.50251 3.37635
rclavicle -1.38714e-014 5.06901e-015
rhumerus 26.368 12.1173 -46.2472
rradius 110.176
rwrist -2.33141
rhand -40.7095 -11.1674
rfingers 7.12502
rthumb -13.6517 -40.6997
lclavicle -1.38714e-014 5.06901e-015
lhumerus 37.1355 19.6522 34.3193
lradius 139.94
lwrist 8.56021
lhand -11.6244 -51.0421
lfingers 7.12502
lthumb 14.419 -21.563
rfemur 0 0 0
rtibia 0
rfoot 0 0
rtoes 0
lfemur -3.71165 -9.3933 -11.1277
ltibia 23.3614
lfoot -23.4767 12.1642
ltoes -56.0615
182
root -0.647218 18.653 6.14035 0.0184595 2.67097 -3.57261
lowerback 1.08529 3.43688 0.921661
upperback -2.66454 4.65747 1.34838
thorax -3.38596 2.31851 0.683483
lowerneck -3.14068 -8.80503 -13.7445
upperneck 27.6594 -12.577 7.01267
head 10.7482 -6.51717 3.45535
rclavicle -1.19892e-015 4.67144e-015
rhumerus 25.7038 12.6983 -46.3524
rradius 110.52
rwrist -2.26957
rhand -40.5195 -11.4984
rfingers 7.12502
rthumb -13.4685 -41.0429
lclavicle -1.19892e-015 4.67144e-015
lhumerus 37.196 19.8182 34.3954
lradius 139.991
lwrist 8.59101
lhand -11.8266 -50.977
lfingers 7.12502
lthumb 14.2241 -21.484
rfemur 0 0 0
rtibia 0
rfoot 0 0
rtoes 0
lfemur -3.71819 -9.41505 -11.1065
ltibia 23.3867
lfoot -23.5187 12.1828
ltoes -56.0066
